<svg width="370" height="320" viewBox="0 0 37 32" xmlns="http://www.w3.org/2000/svg" shape-rendering="crispEdges">
  <!-- 
    Final Refined Kawaii Pixel Bunny (SVG CrispEdges)
    Theme: Perfect Symmetry, Long Ears, Round Body
    Correction: Fixed asymmetrical ear height. 
    Outline: Deep Cocoa/Brown (#3E2723)
    Body: Cream/White
  -->
  
  <!-- 1. SYMMETRICAL FILL (Body + Perfect Ears) -->
  <!-- Long Ears Fill (Strictly Symmetrical Height and Position) -->
  <rect x="11" y="2" width="5" height="10" fill="#FFFFFF" />
  <rect x="21" y="2" width="5" height="10" fill="#FFFFFF" />
  
  <!-- Main Body/Head Fill -->
  <rect x="8" y="14" width="21" height="13" fill="#FFFFFF" />
  <rect x="10" y="12" width="17" height="2" fill="#FFFFFF" />
  <rect x="12" y="11" width="13" height="1" fill="#FFFFFF" />
  
  <!-- Shading -->
  <rect x="25" y="16" width="3" height="10" fill="#F0E5F0" />
  <rect x="9" y="25" width="20" height="2" fill="#F0E5F0" />

  <!-- 2. PERFECT SYMMETRICAL OUTLINE -->
  <!-- Top of Ears (Y=1) -->
  <rect x="11" y="1" width="5" height="1" fill="#3E2723" />
  <rect x="21" y="1" width="5" height="1" fill="#3E2723" />
  
  <!-- Sides of Ears (Corrected Symmetry) -->
  <rect x="10" y="2" width="1" height="10" fill="#3E2723" /> <!-- Outer L -->
  <rect x="16" y="2" width="1" height="9" fill="#3E2723" />  <!-- Inner L -->
  <rect x="20" y="2" width="1" height="9" fill="#3E2723" />  <!-- Inner R -->
  <rect x="26" y="2" width="1" height="10" fill="#3E2723" /> <!-- Outer R -->
  
  <!-- Connecting lines between/beside ears -->
  <rect x="17" y="11" width="3" height="1" fill="#3E2723" /> <!-- Between ears -->
  <rect x="12" y="10" width="4" height="1" fill="#3E2723" /> <!-- Left shoulder -->
  <rect x="21" y="10" width="4" height="1" fill="#3E2723" /> <!-- Right shoulder -->
  
  <!-- Main Body Outline -->
  <rect x="10" y="11" width="2" height="1" fill="#3E2723" />
  <rect x="25" y="11" width="1" height="1" fill="#3E2723" />
  <rect x="8" y="12" width="2" height="1" fill="#3E2723" />
  <rect x="26" y="12" width="2" height="1" fill="#3E2723" />
  <rect x="7" y="13" width="1" height="14" fill="#3E2723" />
  <rect x="28" y="13" width="1" height="14" fill="#3E2723" />
  <rect x="8" y="27" width="20" height="1" fill="#3E2723" />

  <!-- 3. FACE & DETAILS (Centered) -->
  <rect x="13" y="18" width="1" height="2" fill="#3E2723" />
  <rect x="22" y="18" width="1" height="2" fill="#3E2723" />
  <rect x="18" y="22" width="1" height="1" fill="#3E2723" />
  <rect x="17" y="21" width="1" height="1" fill="#3E2723" />
  <rect x="19" y="21" width="1" height="1" fill="#3E2723" />
  
  <!-- BLUSH -->
  <rect x="10" y="20" width="2" height="1" fill="#FF80AB" />
  <rect x="24" y="20" width="2" height="1" fill="#FF80AB" />

  <!-- TAIL -->
  <rect x="5" y="21" width="2" height="3" fill="#FFFFFF" />
  <rect x="4" y="21" width="1" height="3" fill="#3E2723" />
  <rect x="5" y="20" width="2" height="1" fill="#3E2723" />
  <rect x="5" y="24" width="2" height="1" fill="#3E2723" />
</svg>
