<svg width="370" height="320" viewBox="0 0 37 32" xmlns="http://www.w3.org/2000/svg" shape-rendering="crispEdges">
  <!-- 
    Refined Kawaii Pixel Bunny (SVG CrispEdges)
    Theme: Chunky, Round, Lazy Bunny
    Outline: Deep Cocoa/Brown (Softer than pure black)
    Body: Cream/White with subtle pink shading
  -->
  
  <!-- BODY FILL (Cream White) -->
  <!-- Main plump shape -->
  <rect x="8" y="14" width="22" height="13" fill="#FFFFFF" />
  <rect x="10" y="12" width="18" height="2" fill="#FFFFFF" />
  <rect x="12" y="11" width="14" height="1" fill="#FFFFFF" />
  
  <!-- Subtle Body Shading (Soft Lavender/Pinkish Gray) -->
  <rect x="26" y="16" width="3" height="10" fill="#F0E5F0" />
  <rect x="9" y="25" width="20" height="2" fill="#F0E5F0" />

  <!-- EARS (Chunky, Pill-shaped) -->
  <!-- Left Ear -->
  <rect x="11" y="5" width="5" height="8" fill="#FFFFFF" />
  <!-- Right Ear -->
  <rect x="22" y="5" width="5" height="8" fill="#FFFFFF" />

  <!-- SOFTER OUTLINE (Deep Cocoa Brown #3E2723) -->
  <!-- Left Ear Outline -->
  <rect x="11" y="4" width="5" height="1" fill="#3E2723" />
  <rect x="10" y="5" width="1" height="8" fill="#3E2723" />
  <rect x="16" y="5" width="1" height="8" fill="#3E2723" />
  <!-- Right Ear Outline -->
  <rect x="22" y="4" width="5" height="1" fill="#3E2723" />
  <rect x="21" y="5" width="1" height="8" fill="#3E2723" />
  <rect x="27" y="5" width="1" height="8" fill="#3E2723" />
  
  <!-- Main Body Outline -->
  <rect x="12" y="10" width="14" height="1" fill="#3E2723" /> <!-- Top -->
  <rect x="10" y="11" width="2" height="1" fill="#3E2723" />
  <rect x="26" y="11" width="2" height="1" fill="#3E2723" />
  <rect x="8" y="12" width="2" height="1" fill="#3E2723" />
  <rect x="28" y="12" width="2" height="1" fill="#3E2723" />
  
  <rect x="7" y="13" width="1" height="14" fill="#3E2723" /> <!-- Left side -->
  <rect x="30" y="13" width="1" height="14" fill="#3E2723" /> <!-- Right side -->
  
  <rect x="8" y="27" width="22" height="1" fill="#3E2723" /> <!-- Bottom -->

  <!-- FACE (. . w) -->
  <!-- Lazy Small Eyes -->
  <rect x="14" y="18" width="1" height="2" fill="#3E2723" />
  <rect x="23" y="18" width="1" height="2" fill="#3E2723" />
  <!-- W Mouth (Classic Kawaii) -->
  <rect x="17" y="21" width="1" height="1" fill="#3E2723" />
  <rect x="19" y="21" width="1" height="1" fill="#3E2723" />
  <rect x="21" y="21" width="1" height="1" fill="#3E2723" />
  <rect x="18" y="22" width="3" height="1" fill="#3E2723" />
  
  <!-- BLUSH (Vivid Pink) -->
  <rect x="11" y="20" width="2" height="1" fill="#FF80AB" />
  <rect x="25" y="20" width="2" height="1" fill="#FF80AB" />

  <!-- TAIL -->
  <rect x="5" y="21" width="2" height="3" fill="#FFFFFF" />
  <rect x="4" y="21" width="1" height="3" fill="#3E2723" />
  <rect x="5" y="20" width="2" height="1" fill="#3E2723" />
  <rect x="5" y="24" width="2" height="1" fill="#3E2723" />
</svg>
