<svg width="370" height="320" viewBox="0 0 37 32" xmlns="http://www.w3.org/2000/svg" shape-rendering="crispEdges">
  <!-- 
    Lazy Bunny - Refined "Pudding Bunny" with Custom Inner Ear Palette
    - Colors: 
      Body: Pure White (#FFFFFF)
      Outline: Deep Cocoa (#3E2723)
      Inner Ear: Soft Lavender Pink (#F8BBD0) - Selected for a premium sticker feel
      Blush: Vivid Strawberry (#FF80AB)
      Shadow: Very Light Grayish Purple (#F3E5F5)
  -->
  
  <!-- 1. UNIFIED FILL -->
  <!-- Main Body/Head/Ears -->
  <rect x="11" y="2" width="5" height="10" fill="#FFFFFF" />
  <rect x="21" y="2" width="5" height="10" fill="#FFFFFF" />
  <rect x="8" y="14" width="21" height="13" fill="#FFFFFF" />
  <rect x="10" y="12" width="17" height="2" fill="#FFFFFF" />
  <rect x="12" y="11" width="13" height="1" fill="#FFFFFF" />
  
  <!-- INNER EARS (Color: Soft Lavender Pink #F8BBD0) -->
  <rect x="12" y="3" width="3" height="7" fill="#F8BBD0" />
  <rect x="22" y="3" width="3" height="7" fill="#F8BBD0" />
  
  <!-- Shading (Bottom & Right) -->
  <rect x="25" y="16" width="3" height="10" fill="#F3E5F5" />
  <rect x="9" y="25" width="20" height="2" fill="#F3E5F5" />

  <!-- 2. CLEAN COCOA OUTLINE (#3E2723) -->
  <!-- Ear Outlines -->
  <rect x="11" y="1" width="5" height="1" fill="#3E2723" />
  <rect x="21" y="1" width="5" height="1" fill="#3E2723" />
  <rect x="10" y="2" width="1" height="10" fill="#3E2723" />
  <rect x="16" y="2" width="1" height="9" fill="#3E2723" />
  <rect x="20" y="2" width="1" height="9" fill="#3E2723" />
  <rect x="26" y="2" width="1" height="10" fill="#3E2723" />
  
  <!-- Seamless Transitions -->
  <rect x="17" y="11" width="3" height="1" fill="#3E2723" /> 
  <rect x="12" y="10" width="4" height="1" fill="#3E2723" />
  <rect x="21" y="10" width="4" height="1" fill="#3E2723" />
  <rect x="10" y="11" width="2" height="1" fill="#3E2723" />
  <rect x="25" y="11" width="1" height="1" fill="#3E2723" />
  <rect x="8" y="12" width="2" height="1" fill="#3E2723" />
  <rect x="26" y="12" width="2" height="1" fill="#3E2723" />
  
  <!-- Body Perimeter -->
  <rect x="7" y="13" width="1" height="14" fill="#3E2723" />
  <rect x="28" y="13" width="1" height="14" fill="#3E2723" />
  <rect x="8" y="27" width="20" height="1" fill="#3E2723" />

  <!-- 3. KAWAII FACE -->
  <rect x="13" y="18" width="1" height="2" fill="#3E2723" />
  <rect x="22" y="18" width="1" height="2" fill="#3E2723" />
  <rect x="18" y="22" width="1" height="1" fill="#3E2723" />
  <rect x="17" y="21" width="1" height="1" fill="#3E2723" />
  <rect x="19" y="21" width="1" height="1" fill="#3E2723" />
  
  <!-- Blush (Strawberry Pink) -->
  <rect x="10" y="20" width="2" height="1" fill="#FF80AB" />
  <rect x="24" y="20" width="2" height="1" fill="#FF80AB" />

  <!-- TAIL -->
  <rect x="5" y="21" width="2" height="3" fill="#FFFFFF" />
  <rect x="4" y="21" width="1" height="3" fill="#3E2723" />
  <rect x="5" y="20" width="2" height="1" fill="#3E2723" />
  <rect x="5" y="24" width="2" height="1" fill="#3E2723" />
</svg>
